<svg width="57" height="277" viewBox="0 0 57 277" fill="none" xmlns="http://www.w3.org/2000/svg">
<g filter="url(#filter0_d_754_92)">
<path d="M28.053 183.99H48.717C48.838 181.559 47.137 177.79 44.584 177.79H11.522C8.96897 177.79 7.26697 181.558 7.38897 183.99H28.053ZM44.497 179.104C44.8504 179.104 45.1959 179.209 45.4898 179.405C45.7836 179.602 46.0127 179.881 46.1479 180.207C46.2832 180.534 46.3186 180.893 46.2496 181.24C46.1807 181.586 46.0105 181.905 45.7606 182.155C45.5106 182.405 45.1922 182.575 44.8456 182.644C44.4989 182.713 44.1396 182.677 43.8131 182.542C43.4866 182.407 43.2075 182.178 43.0111 181.884C42.8148 181.59 42.71 181.244 42.71 180.891C42.7102 180.417 42.8986 179.963 43.2337 179.628C43.5688 179.293 44.0232 179.104 44.497 179.104ZM39.797 179.104C40.1504 179.104 40.4959 179.209 40.7898 179.405C41.0836 179.602 41.3127 179.881 41.4479 180.207C41.5832 180.534 41.6186 180.893 41.5496 181.24C41.4807 181.586 41.3105 181.905 41.0606 182.155C40.8106 182.405 40.4922 182.575 40.1456 182.644C39.7989 182.713 39.4396 182.677 39.1131 182.542C38.7866 182.407 38.5075 182.178 38.3111 181.884C38.1148 181.59 38.01 181.244 38.01 180.891C38.0101 180.656 38.0566 180.423 38.1469 180.206C38.2372 179.989 38.3695 179.792 38.5362 179.626C38.7028 179.46 38.9006 179.328 39.1182 179.239C39.3357 179.15 39.5688 179.104 39.804 179.105L39.797 179.104ZM35.097 179.104C35.4504 179.104 35.7959 179.209 36.0898 179.405C36.3836 179.602 36.6127 179.881 36.7479 180.207C36.8832 180.534 36.9186 180.893 36.8496 181.24C36.7807 181.586 36.6105 181.905 36.3606 182.155C36.1107 182.405 35.7922 182.575 35.4456 182.644C35.0989 182.713 34.7396 182.677 34.4131 182.542C34.0866 182.407 33.8075 182.178 33.6111 181.884C33.4148 181.59 33.31 181.244 33.31 180.891C33.3101 180.656 33.3566 180.423 33.4469 180.206C33.5372 179.989 33.6695 179.792 33.8362 179.626C34.0029 179.46 34.2006 179.328 34.4182 179.239C34.6357 179.15 34.8688 179.104 35.104 179.105L35.097 179.104ZM30.397 179.104C30.7504 179.104 31.0959 179.209 31.3898 179.405C31.6836 179.602 31.9127 179.881 32.0479 180.207C32.1832 180.534 32.2186 180.893 32.1496 181.24C32.0807 181.586 31.9105 181.905 31.6606 182.155C31.4106 182.405 31.0922 182.575 30.7456 182.644C30.3989 182.713 30.0396 182.677 29.7131 182.542C29.3866 182.407 29.1075 182.178 28.9111 181.884C28.7148 181.59 28.61 181.244 28.61 180.891C28.6101 180.656 28.6566 180.423 28.7469 180.206C28.8372 179.989 28.9695 179.792 29.1362 179.626C29.3029 179.46 29.5006 179.328 29.7182 179.239C29.9357 179.15 30.1688 179.104 30.404 179.105L30.397 179.104ZM25.697 179.104C26.0504 179.104 26.3959 179.209 26.6898 179.405C26.9836 179.602 27.2127 179.881 27.3479 180.207C27.4832 180.534 27.5186 180.893 27.4496 181.24C27.3807 181.586 27.2105 181.905 26.9606 182.155C26.7106 182.405 26.3922 182.575 26.0456 182.644C25.6989 182.713 25.3396 182.677 25.0131 182.542C24.6866 182.407 24.4075 182.178 24.2111 181.884C24.0148 181.59 23.91 181.244 23.91 180.891C23.9101 180.656 23.9566 180.423 24.0469 180.206C24.1372 179.989 24.2695 179.792 24.4362 179.626C24.6029 179.46 24.8006 179.328 25.0182 179.239C25.2357 179.15 25.4688 179.104 25.704 179.105L25.697 179.104ZM20.997 179.104C21.3504 179.104 21.696 179.208 21.99 179.405C22.284 179.601 22.5132 179.88 22.6487 180.206C22.7841 180.533 22.8196 180.892 22.7507 181.239C22.6819 181.586 22.5118 181.904 22.2619 182.154C22.012 182.404 21.6936 182.575 21.347 182.644C21.0003 182.713 20.6409 182.677 20.3143 182.542C19.9877 182.407 19.7086 182.178 19.5122 181.884C19.3158 181.59 19.211 181.245 19.211 180.891C19.2111 180.656 19.2576 180.423 19.3478 180.206C19.4381 179.989 19.5703 179.792 19.7368 179.626C19.9034 179.46 20.1011 179.329 20.3185 179.239C20.5359 179.15 20.7689 179.104 21.004 179.105L20.997 179.104ZM16.297 179.104C16.6504 179.104 16.9959 179.209 17.2898 179.405C17.5836 179.602 17.8127 179.881 17.9479 180.207C18.0832 180.534 18.1186 180.893 18.0496 181.24C17.9807 181.586 17.8105 181.905 17.5606 182.155C17.3106 182.405 16.9922 182.575 16.6456 182.644C16.2989 182.713 15.9396 182.677 15.6131 182.542C15.2866 182.407 15.0075 182.178 14.8111 181.884C14.6148 181.59 14.51 181.244 14.51 180.891C14.5101 180.656 14.5566 180.423 14.6469 180.206C14.7372 179.989 14.8695 179.792 15.0362 179.626C15.2028 179.46 15.4006 179.328 15.6182 179.239C15.8357 179.15 16.0688 179.104 16.304 179.105L16.297 179.104ZM11.597 179.104C11.9504 179.104 12.2959 179.209 12.5898 179.405C12.8836 179.602 13.1127 179.881 13.2479 180.207C13.3832 180.534 13.4186 180.893 13.3496 181.24C13.2807 181.586 13.1105 181.905 12.8606 182.155C12.6107 182.405 12.2922 182.575 11.9456 182.644C11.5989 182.713 11.2396 182.677 10.9131 182.542C10.5866 182.407 10.3075 182.178 10.1111 181.884C9.91477 181.59 9.80997 181.244 9.80997 180.891C9.81007 180.655 9.85677 180.422 9.94737 180.205C10.038 179.987 10.1708 179.79 10.338 179.624C10.5052 179.458 10.7035 179.327 10.9216 179.238C11.1398 179.148 11.3734 179.103 11.609 179.105L11.597 179.104Z" fill="#FFDD9A"/>
<path d="M27.9881 192.378H49.1381L51.9381 188.732L49.1381 185.085H6.95906L4.16406 188.732L6.95906 192.378H27.9881ZM7.50006 191.285L7.09106 190.751L8.59106 189.251L10.6281 191.288L7.50006 191.285ZM13.0431 191.285L15.0801 189.248L17.1161 191.285H13.0431ZM19.5281 191.285L21.5651 189.248L23.6001 191.285H19.5281ZM26.0131 191.285L28.0501 189.248L30.0871 191.285H26.0131ZM32.4981 191.285L34.5351 189.248L36.5721 191.285H32.4981ZM38.9831 191.285L41.0201 189.248L43.0571 191.285H38.9831ZM48.5991 191.285H45.4681L47.5051 189.248L49.0051 190.748L49.1111 190.61L48.5991 191.285ZM49.1421 186.885L50.5561 188.73L49.4561 190.165L48.0211 188.73L49.4561 187.295L49.1421 186.885ZM48.5991 186.177L49.0081 186.711L47.5081 188.211L45.4711 186.174L48.5991 186.177ZM44.4371 186.177L46.9901 188.73L44.4371 191.283H44.0881L41.5361 188.73L44.0891 186.177H44.4371ZM43.0571 186.177L41.0201 188.214L38.9831 186.177H43.0571ZM37.9571 186.177L40.5091 188.73L37.9571 191.283H37.6001L35.0481 188.73L37.6001 186.179L37.9571 186.177ZM36.5771 186.177L34.5401 188.214L32.5031 186.177H36.5771ZM31.4771 186.177L34.0291 188.73L31.4771 191.283H31.1281L28.5761 188.73L31.1281 186.177H31.4771ZM30.0971 186.177L28.0601 188.214L26.0231 186.177H30.0971ZM24.9971 186.177L27.5491 188.73L24.9971 191.283H24.6481L22.0951 188.73L24.6481 186.177H24.9971ZM23.6171 186.177L21.5801 188.214L19.5431 186.177H23.6171ZM18.5111 186.177L21.0641 188.73L18.5121 191.283H18.1631L15.6101 188.73L18.1631 186.177H18.5111ZM17.1321 186.177L15.0951 188.214L13.0581 186.177H17.1321ZM12.0261 186.177L14.5791 188.73L12.0261 191.283H11.6781L9.12506 188.73L11.6781 186.177H12.0261ZM7.51506 186.177H10.6461L8.60906 188.214L7.10906 186.714L6.78606 187.136L7.51506 186.177ZM5.55806 188.73L6.65806 187.295L8.09406 188.73L6.65806 190.165L6.77006 190.31L5.55806 188.73Z" fill="#FFDD9A"/>
<path d="M20.0781 226.59H36.5011V193.229H20.0781V226.59ZM22.0641 211.153C22.0641 202.465 28.2871 198.926 28.2871 198.926C28.2871 198.926 34.5101 202.465 34.5101 211.153V224.768H22.0641V211.153Z" fill="#FFDD9A"/>
<path d="M18.6616 226.59V193.229H7.39062V226.59H18.6616ZM8.72963 198.926C8.72963 198.926 16.5806 202.465 16.5806 211.153V224.768H8.72963V198.926Z" fill="#FFDD9A"/>
<path d="M49.0054 226.59V193.229H37.7344V226.59H49.0054ZM39.8154 211.153C39.8154 202.465 47.6674 198.926 47.6674 198.926V224.768H39.8154V211.153Z" fill="#FFDD9A"/>
<path d="M17.3538 176.698C17.3538 169.114 23.5428 162.871 26.5048 160.318C26.5688 160.368 26.6308 160.418 26.6988 160.462C24.1348 163.254 18.8128 169.869 18.8128 176.698H37.2888C37.2888 169.869 31.9658 163.254 29.4018 160.462C29.4708 160.418 29.5328 160.368 29.5968 160.318C32.5578 162.871 38.7478 169.118 38.7478 176.698H43.4878C43.4878 176.698 44.8208 166.847 29.9928 159.929C30.2224 159.668 30.3902 159.359 30.4839 159.024C30.5775 158.69 30.5946 158.338 30.5338 157.996C31.9804 157.419 33.1808 156.355 33.9284 154.989C34.6761 153.623 34.9243 152.038 34.6304 150.509C34.3365 148.979 33.5189 147.6 32.3181 146.608C31.1173 145.616 29.6083 145.073 28.0508 145.073C26.4932 145.073 24.9842 145.616 23.7834 146.608C22.5826 147.6 21.765 148.979 21.4711 150.509C21.1772 152.038 21.4254 153.623 22.1731 154.989C22.9207 156.355 24.1211 157.419 25.5678 157.996C25.5069 158.338 25.524 158.69 25.6176 159.024C25.7113 159.359 25.8792 159.668 26.1088 159.929C11.2808 166.847 12.6088 176.698 12.6088 176.698H17.3538ZM22.8098 151.78C22.8085 150.824 23.0686 149.886 23.5619 149.068C24.0551 148.249 24.7628 147.581 25.6084 147.136C26.4539 146.691 27.4051 146.485 28.3591 146.541C29.3131 146.597 30.2336 146.913 31.021 147.455C31.8084 147.997 32.4327 148.743 32.8264 149.614C33.22 150.485 33.3682 151.447 33.2547 152.396C33.1412 153.344 32.7704 154.244 32.1824 154.998C31.5944 155.751 30.8117 156.329 29.9188 156.67C29.6853 156.404 29.3978 156.192 29.0756 156.046C28.7534 155.9 28.4039 155.825 28.0503 155.825C27.6966 155.825 27.3471 155.9 27.0249 156.046C26.7027 156.192 26.4153 156.404 26.1818 156.67C25.1913 156.291 24.339 155.621 23.737 154.748C23.135 153.875 22.8117 152.84 22.8098 151.78Z" fill="#FFDD9A"/>
<path d="M49.034 227.8H7.1C6.2778 227.8 5.4893 228.127 4.908 228.708C4.3266 229.289 4 230.078 4 230.9C4 231.722 4.3266 232.511 4.908 233.092C5.4893 233.673 6.2778 234 7.1 234H49.036C49.8582 234 50.6467 233.673 51.228 233.092C51.8094 232.511 52.136 231.722 52.136 230.9C52.136 230.078 51.8094 229.289 51.228 228.708C50.6467 228.127 49.8582 227.8 49.036 227.8H49.034Z" fill="#FFDD9A"/>
<path d="M29.974 253.061C29.9116 252.977 29.8431 252.898 29.769 252.825C31.936 250.264 35.712 244.488 35.712 235.313H20.856C20.856 244.488 24.632 250.264 26.799 252.825C26.7249 252.898 26.6563 252.977 26.594 253.061C24.062 250.776 19.575 245.318 19.575 235.313H9.375C9.375 235.313 12.108 251.139 26.175 254.031C26.155 254.142 26.1436 254.254 26.141 254.367C26.1411 254.792 26.2676 255.207 26.5045 255.56C26.7413 255.913 27.0777 256.188 27.471 256.349L25.722 260.429L28.286 268.362L30.85 260.429L29.101 256.349C29.4942 256.188 29.8306 255.913 30.0674 255.56C30.3043 255.207 30.4308 254.792 30.431 254.367C30.4283 254.254 30.4169 254.142 30.397 254.031C44.46 251.139 47.197 235.313 47.197 235.313H36.998C36.998 245.318 32.506 250.776 29.974 253.061Z" fill="#FFDD9A"/>
<path d="M29.0685 0H28.0625V145.002H29.0685V0Z" fill="#FFDD9A"/>
<path d="M28.053 184.49H48.717C48.838 182.059 47.137 178.29 44.584 178.29H11.522C8.96897 178.29 7.26697 182.058 7.38897 184.49H28.053ZM44.497 179.604C44.8504 179.604 45.196 179.709 45.4899 179.905C45.7838 180.102 46.0128 180.381 46.148 180.707C46.2833 181.034 46.3186 181.393 46.2495 181.74C46.1805 182.087 46.0102 182.405 45.7602 182.655C45.5102 182.905 45.1917 183.075 44.845 183.144C44.4983 183.213 44.1389 183.177 43.8124 183.042C43.4859 182.906 43.2069 182.677 43.0106 182.383C42.8144 182.089 42.7098 181.744 42.71 181.39C42.7105 180.916 42.899 180.462 43.2341 180.128C43.5691 179.793 44.0234 179.604 44.497 179.604ZM39.797 179.604C40.1505 179.604 40.4963 179.708 40.7904 179.904C41.0846 180.1 41.3139 180.379 41.4494 180.706C41.585 181.033 41.6206 181.392 41.5518 181.739C41.483 182.086 41.3128 182.404 41.0629 182.654C40.813 182.904 40.4945 183.075 40.1477 183.144C39.8009 183.213 39.4415 183.177 39.1149 183.042C38.7882 182.907 38.5091 182.677 38.3128 182.383C38.1164 182.089 38.0118 181.744 38.012 181.39C38.0122 181.155 38.0588 180.923 38.149 180.706C38.2393 180.489 38.3714 180.292 38.5378 180.126C38.7043 179.96 38.9018 179.829 39.119 179.739C39.3363 179.65 39.569 179.604 39.804 179.605L39.797 179.604ZM35.097 179.604C35.4506 179.603 35.7964 179.708 36.0907 179.904C36.385 180.1 36.6145 180.379 36.7502 180.705C36.8859 181.032 36.9216 181.391 36.8529 181.738C36.7842 182.085 36.6142 182.404 36.3643 182.654C36.1144 182.904 35.7959 183.075 35.4491 183.144C35.1023 183.213 34.7428 183.177 34.4161 183.042C34.0894 182.907 33.8102 182.678 33.6138 182.383C33.4175 182.089 33.3128 181.744 33.313 181.39C33.3132 181.155 33.3598 180.923 33.4499 180.706C33.5401 180.489 33.6722 180.292 33.8385 180.126C34.0048 179.961 34.2022 179.829 34.4193 179.74C34.6365 179.65 34.8691 179.605 35.104 179.605L35.097 179.604ZM30.397 179.604C30.7506 179.603 31.0967 179.707 31.3912 179.903C31.6858 180.099 31.9156 180.377 32.0516 180.704C32.1876 181.03 32.2236 181.39 32.1552 181.737C32.0867 182.084 31.9168 182.403 31.667 182.653C31.4172 182.904 31.0987 183.074 30.7518 183.143C30.405 183.213 30.0454 183.177 29.7186 183.042C29.3918 182.907 29.1124 182.678 28.916 182.384C28.7195 182.09 28.6148 181.744 28.615 181.39C28.6152 181.155 28.6617 180.923 28.7518 180.706C28.8418 180.49 28.9736 180.293 29.1398 180.127C29.3059 179.961 29.503 179.83 29.72 179.74C29.9369 179.651 30.1693 179.605 30.404 179.605L30.397 179.604ZM25.697 179.604C26.0507 179.603 26.397 179.706 26.6918 179.902C26.9866 180.097 27.2167 180.376 27.353 180.703C27.4893 181.029 27.5256 181.389 27.4574 181.736C27.3892 182.083 27.2194 182.402 26.9697 182.652C26.7199 182.903 26.4015 183.074 26.0546 183.143C25.7077 183.213 25.348 183.178 25.021 183.042C24.6941 182.907 24.4147 182.678 24.2181 182.384C24.0216 182.09 23.9168 181.744 23.917 181.39C23.9175 180.916 24.106 180.462 24.4411 180.128C24.7761 179.793 25.2304 179.605 25.704 179.605L25.697 179.604ZM20.997 179.604C21.3508 179.602 21.6972 179.706 21.9923 179.901C22.2874 180.096 22.5178 180.375 22.6544 180.701C22.791 181.028 22.8277 181.387 22.7596 181.734C22.6916 182.082 22.522 182.401 22.2724 182.652C22.0227 182.903 21.7043 183.074 21.3573 183.143C21.0103 183.213 20.6505 183.178 20.3235 183.043C19.9965 182.907 19.7169 182.678 19.5203 182.384C19.3236 182.09 19.2188 181.744 19.219 181.39C19.2195 180.917 19.4077 180.463 19.7424 180.128C20.077 179.794 20.5307 179.606 21.004 179.605L20.997 179.604ZM16.297 179.604C16.6508 179.602 16.9974 179.705 17.2926 179.9C17.5878 180.096 17.8184 180.374 17.9551 180.7C18.0919 181.027 18.1287 181.387 18.0608 181.734C17.9929 182.081 17.8234 182.401 17.5737 182.651C17.3241 182.902 17.0056 183.073 16.6587 183.143C16.3117 183.213 15.9518 183.178 15.6247 183.043C15.2976 182.908 15.018 182.678 14.8214 182.384C14.6247 182.09 14.5198 181.744 14.52 181.39C14.5205 180.917 14.7086 180.463 15.043 180.129C15.3774 179.794 15.8309 179.606 16.304 179.605L16.297 179.604ZM11.597 179.604C11.9509 179.602 12.2976 179.704 12.5931 179.899C12.8886 180.094 13.1195 180.373 13.2566 180.699C13.3936 181.025 13.4307 181.385 13.363 181.733C13.2953 182.08 13.126 182.4 12.8765 182.651C12.6269 182.902 12.3084 183.073 11.9614 183.143C11.6144 183.213 11.2544 183.178 10.9272 183.043C10.6 182.908 10.3203 182.679 10.1235 182.384C9.92667 182.09 9.82177 181.744 9.82197 181.39C9.82247 180.916 10.011 180.462 10.3461 180.128C10.6811 179.793 11.1354 179.605 11.609 179.605L11.597 179.604Z" fill="#EBC883"/>
<path d="M27.9881 192.878H49.1381L51.9381 189.232L49.1381 185.585H6.95906L4.16406 189.232L6.95906 192.878H27.9881ZM7.50006 191.785L7.09106 191.251L8.59106 189.751L10.6281 191.788L7.50006 191.785ZM13.0431 191.785L15.0801 189.748L17.1161 191.785H13.0431ZM19.5281 191.785L21.5651 189.748L23.6001 191.785H19.5281ZM26.0131 191.785L28.0501 189.748L30.0871 191.785H26.0131ZM32.4981 191.785L34.5351 189.748L36.5721 191.785H32.4981ZM38.9831 191.785L41.0201 189.748L43.0571 191.785H38.9831ZM48.5991 191.785H45.4681L47.5051 189.748L49.0051 191.248L49.1111 191.11L48.5991 191.785ZM49.1421 187.385L50.5561 189.23L49.4561 190.665L48.0211 189.23L49.4561 187.795L49.1421 187.385ZM48.5991 186.677L49.0081 187.211L47.5081 188.711L45.4711 186.674L48.5991 186.677ZM44.4371 186.677L46.9901 189.23L44.4371 191.783H44.0881L41.5361 189.23L44.0891 186.677H44.4371ZM43.0571 186.677L41.0201 188.714L38.9831 186.677H43.0571ZM37.9571 186.677L40.5091 189.23L37.9571 191.783H37.6001L35.0481 189.23L37.6001 186.679L37.9571 186.677ZM36.5771 186.677L34.5401 188.714L32.5031 186.677H36.5771ZM31.4771 186.677L34.0291 189.23L31.4771 191.783H31.1281L28.5761 189.23L31.1281 186.677H31.4771ZM30.0971 186.677L28.0601 188.714L26.0231 186.677H30.0971ZM24.9971 186.677L27.5491 189.23L24.9971 191.783H24.6481L22.0951 189.23L24.6481 186.677H24.9971ZM23.6171 186.677L21.5801 188.714L19.5431 186.677H23.6171ZM18.5111 186.677L21.0641 189.23L18.5121 191.783H18.1631L15.6101 189.23L18.1631 186.677H18.5111ZM17.1321 186.677L15.0951 188.714L13.0581 186.677H17.1321ZM12.0261 186.677L14.5791 189.23L12.0261 191.783H11.6781L9.12506 189.23L11.6781 186.677H12.0261ZM7.51506 186.677H10.6461L8.60906 188.714L7.10906 187.214L6.78606 187.636L7.51506 186.677ZM5.55806 189.23L6.65806 187.795L8.09406 189.23L6.65806 190.665L6.77006 190.81L5.55806 189.23Z" fill="#EBC883"/>
<path d="M20.0781 227.09H36.5011V193.729H20.0781V227.09ZM22.0641 211.653C22.0641 202.965 28.2871 199.426 28.2871 199.426C28.2871 199.426 34.5101 202.965 34.5101 211.653V225.268H22.0641V211.653Z" fill="#EBC883"/>
<path d="M18.6616 227.09V193.729H7.39062V227.09H18.6616ZM8.72963 199.426C8.72963 199.426 16.5806 202.965 16.5806 211.653V225.268H8.72963V199.426Z" fill="#EBC883"/>
<path d="M49.0054 227.09V193.729H37.7344V227.09H49.0054ZM39.8154 211.653C39.8154 202.965 47.6674 199.426 47.6674 199.426V225.268H39.8154V211.653Z" fill="#EBC883"/>
<path d="M17.3538 177.198C17.3538 169.614 23.5428 163.371 26.5048 160.818C26.5688 160.868 26.6308 160.918 26.6988 160.962C24.1348 163.754 18.8128 170.369 18.8128 177.198H37.2888C37.2888 170.369 31.9658 163.754 29.4018 160.962C29.4708 160.918 29.5328 160.868 29.5968 160.818C32.5578 163.371 38.7478 169.618 38.7478 177.198H43.4878C43.4878 177.198 44.8208 167.347 29.9928 160.429C30.2224 160.168 30.3902 159.859 30.4839 159.524C30.5775 159.19 30.5946 158.838 30.5338 158.496C31.9804 157.919 33.1808 156.856 33.9284 155.489C34.6761 154.123 34.9243 152.539 34.6304 151.009C34.3365 149.479 33.5189 148.1 32.3181 147.108C31.1173 146.116 29.6083 145.573 28.0508 145.573C26.4932 145.573 24.9842 146.116 23.7834 147.108C22.5826 148.1 21.765 149.479 21.4711 151.009C21.1772 152.539 21.4254 154.123 22.1731 155.489C22.9207 156.856 24.1211 157.919 25.5678 158.496C25.5069 158.838 25.524 159.19 25.6176 159.524C25.7113 159.859 25.8792 160.168 26.1088 160.429C11.2808 167.347 12.6088 177.198 12.6088 177.198H17.3538ZM22.8098 152.28C22.8085 151.325 23.0686 150.387 23.5619 149.568C24.0551 148.75 24.7628 148.082 25.6084 147.636C26.4539 147.191 27.4051 146.985 28.3591 147.041C29.3131 147.098 30.2336 147.414 31.021 147.955C31.8084 148.497 32.4327 149.243 32.8264 150.114C33.22 150.985 33.3682 151.947 33.2547 152.896C33.1412 153.845 32.7704 154.745 32.1824 155.498C31.5944 156.251 30.8117 156.83 29.9188 157.17C29.6853 156.905 29.3978 156.692 29.0756 156.546C28.7534 156.4 28.4039 156.325 28.0503 156.325C27.6966 156.325 27.3471 156.4 27.0249 156.546C26.7027 156.692 26.4153 156.905 26.1818 157.17C25.1913 156.791 24.339 156.121 23.737 155.248C23.135 154.375 22.8117 153.341 22.8098 152.28Z" fill="#EBC883"/>
<path d="M49.034 228.3H7.1C6.2778 228.3 5.4893 228.627 4.908 229.208C4.3266 229.789 4 230.578 4 231.4C4 232.222 4.3266 233.011 4.908 233.592C5.4893 234.174 6.2778 234.5 7.1 234.5H49.036C49.8582 234.5 50.6467 234.174 51.228 233.592C51.8094 233.011 52.136 232.222 52.136 231.4C52.136 230.578 51.8094 229.789 51.228 229.208C50.6467 228.627 49.8582 228.3 49.036 228.3H49.034Z" fill="#EBC883"/>
<path d="M29.974 253.561C29.9116 253.478 29.8431 253.399 29.769 253.325C31.936 250.764 35.712 244.988 35.712 235.813H20.856C20.856 244.988 24.632 250.764 26.799 253.325C26.7249 253.399 26.6563 253.478 26.594 253.561C24.062 251.276 19.575 245.818 19.575 235.813H9.375C9.375 235.813 12.108 251.639 26.175 254.531C26.155 254.642 26.1436 254.755 26.141 254.867C26.1411 255.292 26.2676 255.708 26.5045 256.061C26.7413 256.413 27.0777 256.688 27.471 256.849L25.722 260.929L28.286 268.862L30.85 260.929L29.101 256.849C29.4942 256.688 29.8306 256.413 30.0674 256.061C30.3043 255.708 30.4308 255.292 30.431 254.867C30.4283 254.755 30.4169 254.642 30.397 254.531C44.46 251.639 47.197 235.813 47.197 235.813H36.998C36.998 245.818 32.506 251.276 29.974 253.561Z" fill="#EBC883"/>
<path d="M29.0685 0.874512H28.0625V145.877H29.0685V0.874512Z" fill="#EBC883"/>
</g>
<defs>
<filter id="filter0_d_754_92" x="0" y="0" width="56.1328" height="276.862" filterUnits="userSpaceOnUse" color-interpolation-filters="sRGB">
<feFlood flood-opacity="0" result="BackgroundImageFix"/>
<feColorMatrix in="SourceAlpha" type="matrix" values="0 0 0 0 0 0 0 0 0 0 0 0 0 0 0 0 0 0 127 0" result="hardAlpha"/>
<feOffset dy="4"/>
<feGaussianBlur stdDeviation="2"/>
<feColorMatrix type="matrix" values="0 0 0 0 0 0 0 0 0 0 0 0 0 0 0 0 0 0 0.25 0"/>
<feBlend mode="normal" in2="BackgroundImageFix" result="effect1_dropShadow_754_92"/>
<feBlend mode="normal" in="SourceGraphic" in2="effect1_dropShadow_754_92" result="shape"/>
</filter>
</defs>
</svg>
