<svg width="92" height="40" viewBox="0 0 92 40" fill="none" xmlns="http://www.w3.org/2000/svg">
<path d="M34.5 39.975H41L24.5 0H18L34.5 39.975Z" fill="white"/>
<path d="M18.1081 30L19.4898 26.5218H25.4532L26.8107 30H18.1081ZM16.7506 33.4782L18.1081 30H26.8107L28.1924 33.4782H16.7506ZM16.0718 35.2174L16.7506 33.4782H28.1924L28.9197 35.2174H16.0718ZM1.89081 40H0L15.8779 0H18.0354L34.6129 40H32.5827L16.8234 2.34299L1.89081 40ZM17.0415 6.47343L18.0354 8.69565L5.62393 40H3.75737L17.0415 6.47343ZM18.0354 8.69565L19.9019 13.4541L9.40555 40H5.62393L18.0354 8.69565ZM19.9019 13.4541L21.7443 18.285L13.1387 40H9.40555L19.9019 13.4541Z" fill="white"/>
<path d="M54.2149 25.4106L57.7551 18.744V40H54.2149V25.4106ZM57.7551 18.744L61.2953 12.1739V40H57.7551V18.744ZM61.2953 12.1739L63.0655 8.86473V40H61.2953V12.1739ZM44.2684 38.175H41.4886L41.1362 36.01L60.6491 0H64.5897L44.2684 38.175ZM41.1362 36.01L39.2824 31.445L56.678 0H60.6491L41.1362 36.01ZM64.8356 3.30918L45.2612 40H40.6746L37.2545 31.8L24.1797 0H26.5127L41.1362 36.01L41.9701 38.175H44.2684L64.5897 0H66.6057V40H64.8356V3.30918Z" fill="white"/>
<path d="M79.8068 20L90.0606 0H92L81.746 20L92 40H90.0606L79.8068 20ZM75.904 20L86.1579 0H90.0606L79.8068 20L90.0606 40H86.1579L75.904 20ZM70.0135 20L80.2916 0H84.1943L73.9405 20L84.1943 40H80.2916L70.0135 20ZM68.0742 20L78.3523 0H80.2916L70.0135 20L80.2916 40H78.3523L68.0742 20Z" fill="white"/>
</svg>
