<svg width="9267" height="4000" viewBox="0 0 9267 4000" fill="none" xmlns="http://www.w3.org/2000/svg">
<path d="M3703.5 3997.5H3930.5L2218 0H2018L3703.5 3997.5Z" fill="white"/>
<path d="M1892.37 2826.08L1963.18 2652.18H2563.86L2634.67 2826.08H1892.37ZM1755.63 3173.92L1824 3000H2700.6L2776.29 3173.92H1755.63ZM1618.89 3521.74L1687.26 3347.82H2839.78L2913.03 3521.74H1618.89ZM190.458 4000H0L1599.35 0H1816.68L3486.5 4000H3282L1694.59 234.299L190.458 4000ZM1716.56 647.343L1816.68 869.565L566.489 4000H378.473L1716.56 647.343ZM1911.9 1106.28L2004.68 1345.41L947.405 4000H756.947L1911.9 1106.28ZM2097.48 1584.54L2190.26 1828.5L1323.43 4000H1135.42L2097.48 1584.54Z" fill="white"/>
<path d="M5460.89 2541.06L5639.19 2212.56V4000H5460.89V2541.06ZM5817.49 1874.4L5995.79 1545.89V4000H5817.49V1874.4ZM6174.09 1217.39L6352.4 886.473V4000H6174.09V1217.39ZM4254.5 3817.5H4179L4143.5 3601L6109 0H6309L4254.5 3817.5ZM4057.19 3391L3956.77 3144.5L5709 0H5909L4057.19 3391ZM6530.7 330.918L4559 4000H4097L3752.5 3180L2435.5 0H2670.5L4143.5 3601L4227.5 3817.5H4459L6505.93 0H6709V4000H6530.7V330.918Z" fill="white"/>
<path d="M8038.8 2000L9071.65 0H9267L8234.14 2000L9267 4000H9071.65L8038.8 2000ZM7645.68 2000L8678.54 0H8873.88L7841.01 2000L8873.88 4000H8678.54L7645.68 2000ZM7252.56 2000L8285.42 0H8480.75L7447.9 2000L8480.75 4000H8285.42L7252.56 2000ZM6857 2000L7892.29 0H8087.64L7052.34 2000L8087.64 4000H7892.29L6857 2000Z" fill="white"/>
</svg>
