<svg width="824" height="364" viewBox="0 0 824 364" fill="none" xmlns="http://www.w3.org/2000/svg">
<g filter="url(#filter0_d_125_25)">
<path d="M292.825 324.746H347.994L207.949 1H152.78L292.825 324.746Z" fill="white"/>
<path d="M145.152 243.961L153.694 223.393H218L227.558 243.961H145.152ZM133.452 272.13L145.152 243.961H227.558L239.285 272.13H133.452ZM127.602 286.215L133.452 272.13H239.285L245.457 286.215H127.602ZM16.0493 324.948H0.000976562L134.765 1H153.077L293.779 324.948H276.548L142.79 19.9752L16.0493 324.948ZM142 59L150 75L47.7343 324.948H31.8918L142 59ZM150 75L168 115L79.8309 324.948H47.7343L150 75ZM168 115L184 153L111.516 324.948H79.8309L168 115Z" fill="white"/>
<path d="M375.733 310.168H352.139L349.148 292.634L514.766 1H548.212L375.733 310.168ZM349.148 292.634L333.413 255.664L481.061 1H514.766L349.148 292.634ZM516 88L384.159 324.948H345.23L316.201 258.539L205.227 1H225.029L349.148 292.634L356.226 310.168H375.733L548.212 1H565.323V324.948H516V88Z" fill="white"/>
<path d="M677.371 162.974L764.402 1H780.863L693.831 162.974L780.863 324.948H764.402L677.371 162.974ZM644.245 162.974L731.277 1H764.402L677.371 162.974L764.402 324.948H731.277L644.245 162.974ZM594.248 162.974L681.486 1H714.611L627.58 162.974L714.611 324.948H681.486L594.248 162.974ZM577.789 162.974L665.025 1H681.486L594.248 162.974L681.486 324.948H665.025L577.789 162.974Z" fill="white"/>
</g>
<defs>
<filter id="filter0_d_125_25" x="0.000976562" y="0" width="823.862" height="363.948" filterUnits="userSpaceOnUse" color-interpolation-filters="sRGB">
<feFlood flood-opacity="0" result="BackgroundImageFix"/>
<feColorMatrix in="SourceAlpha" type="matrix" values="0 0 0 0 0 0 0 0 0 0 0 0 0 0 0 0 0 0 127 0" result="hardAlpha"/>
<feOffset dx="23" dy="19"/>
<feGaussianBlur stdDeviation="10"/>
<feComposite in2="hardAlpha" operator="out"/>
<feColorMatrix type="matrix" values="0 0 0 0 0 0 0 0 0 0 0 0 0 0 0 0 0 0 0.38 0"/>
<feBlend mode="normal" in2="BackgroundImageFix" result="effect1_dropShadow_125_25"/>
<feBlend mode="normal" in="SourceGraphic" in2="effect1_dropShadow_125_25" result="shape"/>
</filter>
</defs>
</svg>
