<svg width="61" height="59" viewBox="0 0 61 59" fill="none" xmlns="http://www.w3.org/2000/svg">
<path d="M36.9639 50.5517V50.5517C25.3328 54.9258 12.3578 49.0428 7.9838 37.4116V37.4116C3.6098 25.7805 9.49315 12.8056 21.1243 8.43162V8.43162" stroke="#FF2B51" stroke-width="6" stroke-linecap="round" stroke-linejoin="bevel"/>
<path d="M21.1242 8.43156V8.43156C32.7553 4.0576 45.73 9.94066 50.104 21.5718L50.7642 23.3271" stroke="#FF2B51" stroke-width="6" stroke-linecap="round" stroke-linejoin="bevel"/>
<path d="M45.3402 50H42.755L50.2322 29.6364H52.7777L60.255 50H57.6697L51.5845 32.858H51.4254L45.3402 50ZM46.2947 42.0455H56.7152V44.233H46.2947V42.0455Z" fill="white"/>
<path d="M21.8331 40V19.6364H24.299V29.7386H24.5376L33.6854 19.6364H36.907L28.3558 28.8239L36.907 40H33.924L26.8445 30.5341L24.299 33.3977V40H21.8331Z" fill="#FF2B51"/>
</svg>
